<?xml version="1.0" encoding="UTF-8"?>
<svg width="2143px" height="2143px" viewBox="0 0 2143 2143" version="1.1" xmlns="http://www.w3.org/2000/svg" xmlns:xlink="http://www.w3.org/1999/xlink">
    <!-- Generator: Sketch 47.1 (45422) - http://www.bohemiancoding.com/sketch -->
    <title>Slice 1</title>
    <desc>Created with Sketch.</desc>
    <defs></defs>
    <g id="Page-1" stroke="none" stroke-width="1" fill="none" fill-rule="evenodd">
        <path d="M1071.5,2143 C479.726891,2143 0,1663.27311 0,1071.5 C0,479.726891 479.726891,0 1071.5,0 C1663.27311,0 2143,479.726891 2143,1071.5 C2143,1663.27311 1663.27311,2143 1071.5,2143 Z M1071.5,1872 C1513.60394,1872 1872,1513.60394 1872,1071.5 C1872,629.396058 1513.60394,271 1071.5,271 C629.396058,271 271,629.396058 271,1071.5 C271,1513.60394 629.396058,1872 1071.5,1872 Z" id="Combined-Shape" fill="#4A90E2"></path>
        <text id="TRASH" font-family="ComicSansMS-Bold, Comic Sans MS" font-size="144" font-weight="bold" letter-spacing="6" fill="#FFFFFF">
            <tspan x="802" y="200">TRASH</tspan>
        </text>
        <polygon id="Star" fill="#FFFFFF" points="132 1125.5 69.106978 1158.56482 81.1184764 1088.53241 30.2369528 1038.93518 100.553489 1028.71759 132 965 163.446511 1028.71759 233.763047 1038.93518 182.881524 1088.53241 194.893022 1158.56482"></polygon>
        <polygon id="Star" fill="#FFFFFF" points="2006 1126.5 1943.10698 1159.56482 1955.11848 1089.53241 1904.23695 1039.93518 1974.55349 1029.71759 2006 966 2037.44651 1029.71759 2107.76305 1039.93518 2056.88152 1089.53241 2068.89302 1159.56482"></polygon>
        <g id="trash-car" transform="translate(1072.000000, 1072.000000) scale(-1, 1) translate(-1072.000000, -1072.000000) translate(422.000000, 717.000000)" fill-rule="nonzero">
            <path d="M2.29264614,383.015889 L82.5094769,174.611366 C87.0926205,160.870455 98.5537025,154 112.305282,154 L336.913697,154 C352.957923,154 369,167.74091 369,186.061409 L369,596 L32.0863026,596 C13.7515795,596 0,582.25909 0,563.938591 L0,392.177212 C0,389.886344 0,385.306756 2.29264614,383.015889 Z" id="Shape" fill="#D40C55"></path>
            <polygon id="Shape" fill="#415A6B" points="250 203 124.011828 203 53 376 250 376"></polygon>
            <path d="M369,50.6606927 L369,597 L1235.79225,597 C1270.81416,597 1300,574.04388 1300,546.497396 L1300,280.636136 C1300,266.377211 1207.59628,136.863691 1195.19455,127.611916 C1183.63766,118.990403 1099.53618,0.158088826 1082.64272,0.158088826 L433.207746,0.158088826 C398.185836,-2.13601676 369,20.8201035 369,50.6606927 Z" id="Shape" fill="#55D40C"></path>
            <circle id="Oval" fill="#415A6B" cx="183.5" cy="597.5" r="112.5"></circle>
            <circle id="Oval" fill="#E8EAE9" cx="184" cy="597" r="53"></circle>
            <circle id="Oval" fill="#415A6B" cx="828.5" cy="597.5" r="112.5"></circle>
            <circle id="Oval" fill="#E8EAE9" cx="828" cy="597" r="53"></circle>
            <circle id="Oval" fill="#415A6B" cx="1131.5" cy="597.5" r="112.5"></circle>
            <circle id="Oval" fill="#E8EAE9" cx="1131" cy="597" r="53"></circle>
            <g id="Group" transform="translate(829.500000, 291.500000) scale(-1, 1) translate(-829.500000, -291.500000) translate(672.000000, 145.000000)" fill="#FFFFFF">
                <path d="M279.311755,124.600631 L267.847619,168.31078 L224.280463,156.809017 L254.089796,205.119441 L183.006993,205.119441 L183.006993,179.8147 L127.975701,237.327827 L183.006993,292.53974 L183.006993,267.230685 L256.381333,267.230685 C265.553932,267.230685 272.432844,262.630412 277.018068,255.728923 L311.412626,200.51701 C315.99785,193.615521 315.99785,184.412817 311.412626,175.212269 L279.311755,124.600631 Z" id="Shape"></path>
                <path d="M91.2896054,239.624729 L121.098939,207.418499 L59.1887347,207.418499 L100.462204,138.403609 L121.098939,149.905372 L100.462204,73.988992 L24.7941769,92.3922439 L47.7245986,106.195222 L4.15744218,179.810386 C-0.427782313,186.711875 -0.427782313,195.91458 4.15744218,205.115127 L38.552,260.32704 C43.1372245,267.228529 50.0161361,271.828802 59.1887347,271.828802 L123.390476,271.828802 L91.2896054,239.624729 Z" id="Shape"></path>
                <path d="M247.210884,71.6877767 L210.522639,11.8755905 C205.937415,4.97410146 199.058503,0.373827664 189.885905,0.373827664 L123.390476,0.373827664 C114.217878,0.373827664 107.338966,4.97410146 102.753741,11.8755905 L79.8233197,50.9833096 L121.096789,41.7806053 L132.560925,85.4907548 L155.491347,46.3830358 L189.885905,103.896163 L166.955483,117.699142 L247.210884,133.801178 L267.847619,57.8847986 L247.210884,71.6877767 Z" id="Shape"></path>
            </g>
        </g>
        <text id="DIENA" font-family="ComicSansMS-Bold, Comic Sans MS" font-size="144" font-weight="bold" letter-spacing="7.9000001" fill="#FFFFFF">
            <tspan x="816" y="2049">DIEN</tspan>
            <tspan x="1237.20156" y="2049">A</tspan>
        </text>
    </g>
</svg>
